<svg width="189" height="96" viewBox="0 0 189 96" fill="none" xmlns="http://www.w3.org/2000/svg">
<path d="M87.648 49.224C87.648 52.3147 86.8627 54.62 85.292 56.14C83.772 57.6093 82.0747 58.344 80.2 58.344H62.188C62.188 59.7627 63.024 60.9533 64.696 61.916C66.368 62.8787 68.04 63.36 69.712 63.36C72.6507 63.36 74.956 63.056 76.628 62.448L77.464 62.144C78.68 61.5867 79.6933 61.308 80.504 61.308C82.1253 61.308 83.5187 62.448 84.684 64.728C85.3427 66.096 85.672 67.2613 85.672 68.224C85.672 72.7333 80.276 74.988 69.484 74.988C65.7347 74.988 62.3907 74.3547 59.452 73.088C56.564 71.7707 54.3093 70.048 52.688 67.92C49.496 63.816 47.9 59.2307 47.9 54.164C47.9 47.78 49.952 42.688 54.056 38.888C58.2107 35.0373 63.3787 33.112 69.56 33.112C76.6027 33.112 81.7707 35.5947 85.064 40.56C86.7867 43.1947 87.648 46.0827 87.648 49.224ZM71.612 51.428C73.5373 51.428 74.5 50.6173 74.5 48.996C74.5 47.8307 74.044 46.8933 73.132 46.184C72.2707 45.4747 71.004 45.12 69.332 45.12C67.7107 45.12 66.0893 45.804 64.468 47.172C62.8467 48.4893 62.036 49.908 62.036 51.428H71.612Z" fill="#FF7300"/>
<path d="M129.04 21.788C129.04 20.6227 129.065 19.7613 129.116 19.204C129.217 18.596 129.445 17.912 129.8 17.152C130.509 15.784 132.485 15.1 135.728 15.1C138.819 15.1 140.744 15.784 141.504 17.152C141.909 17.912 142.137 18.596 142.188 19.204C142.289 19.812 142.34 20.6987 142.34 21.864V57.052C142.34 58.876 142.492 60.0413 142.796 60.548C143.1 61.004 143.759 61.232 144.772 61.232C145.836 61.232 146.545 61.2827 146.9 61.384C147.255 61.4347 147.685 61.6373 148.192 61.992C149.205 62.6507 149.712 64.4493 149.712 67.388C149.712 70.58 149.205 72.5307 148.192 73.24C146.875 74.152 143.733 74.304 138.768 73.696C134.867 73.1893 132.333 71.8973 131.168 69.82C129.749 67.3373 129.04 63.3853 129.04 57.964V21.788Z" fill="#FF7300"/>
<path d="M154.344 70.428C153.381 69.82 152.9 68.8573 152.9 67.54C152.9 66.2227 153.863 64.2213 155.788 61.536C156.345 60.6747 157.232 60.244 158.448 60.244C159.715 60.244 161.412 60.8773 163.54 62.144C165.668 63.36 167.593 63.968 169.316 63.968C172.407 63.968 173.952 63.36 173.952 62.144C173.952 61.1813 172.255 60.472 168.86 60.016C165.668 59.56 162.501 58.3693 159.36 56.444C157.891 55.532 156.675 54.1133 155.712 52.188C154.749 50.212 154.268 47.8813 154.268 45.196C154.268 37.1907 159.765 33.188 170.76 33.188C174.357 33.188 178.056 34.0493 181.856 35.772C183.629 36.5827 184.516 37.596 184.516 38.812C184.516 40.028 183.959 41.5227 182.844 43.296C181.729 45.0693 180.589 45.956 179.424 45.956C178.816 45.956 177.676 45.576 176.004 44.816C174.383 44.056 172.609 43.676 170.684 43.676C167.695 43.676 166.2 44.2333 166.2 45.348C166.2 46.868 167.923 47.856 171.368 48.312C174.712 48.6667 177.955 49.6293 181.096 51.2C182.565 51.9093 183.781 53.1507 184.744 54.924C185.757 56.6467 186.264 58.8253 186.264 61.46C186.264 64.0947 185.757 66.3493 184.744 68.224C183.781 70.048 182.413 71.416 180.64 72.328C177.397 73.8987 173.319 74.684 168.404 74.684C163.54 74.684 158.853 73.2653 154.344 70.428Z" fill="#FF7300"/>
<path d="M88.352 49.224C88.352 52.3147 89.1373 54.62 90.708 56.14C92.228 57.6093 93.9253 58.344 95.8 58.344H113.812C113.812 59.7627 112.976 60.9533 111.304 61.916C109.632 62.8787 107.96 63.36 106.288 63.36C103.349 63.36 101.044 63.056 99.372 62.448L98.536 62.144C97.32 61.5867 96.3067 61.308 95.496 61.308C93.8747 61.308 92.4813 62.448 91.316 64.728C90.6573 66.096 90.328 67.2613 90.328 68.224C90.328 72.7333 95.724 74.988 106.516 74.988C110.265 74.988 113.609 74.3547 116.548 73.088C119.436 71.7707 121.691 70.048 123.312 67.92C126.504 63.816 128.1 59.2307 128.1 54.164C128.1 47.78 126.048 42.688 121.944 38.888C117.789 35.0373 112.621 33.112 106.44 33.112C99.3973 33.112 94.2293 35.5947 90.936 40.56C89.2133 43.1947 88.352 46.0827 88.352 49.224ZM104.388 51.428C102.463 51.428 101.5 50.6173 101.5 48.996C101.5 47.8307 101.956 46.8933 102.868 46.184C103.729 45.4747 104.996 45.12 106.668 45.12C108.289 45.12 109.911 45.804 111.532 47.172C113.153 48.4893 113.964 49.908 113.964 51.428H104.388Z" fill="#FF7300"/>
<path d="M9.03 22.62L21.98 22.69C28.7467 22.69 34.6967 25.14 39.83 30.04C44.9633 34.8933 47.53 40.89 47.53 48.03C47.53 55.1233 45.01 61.2133 39.97 66.3C34.9767 71.3867 28.91 73.93 21.77 73.93L8.96 73.93C6.11333 73.93 4.34 73.3467 3.64 72.18C3.08 71.2 2.8 69.7067 2.8 67.7L2.8 28.78C2.8 27.66 2.82333 26.8433 2.87 26.33C2.96333 25.8167 3.19667 25.21 3.57 24.51C4.22333 23.25 6.04333 22.62 9.03 22.62ZM21.98 61.54C25.34 61.54 28.3733 60.3033 31.08 57.83C33.7867 55.31 35.14 52.16 35.14 48.38C35.14 44.6 33.81 41.45 31.15 38.93C28.5367 36.3633 25.4567 35.08 21.91 35.08L15.19 35.08L15.19 61.54L21.98 61.54Z" fill="#FF7300"/>
<path d="M168.174 67.5236L159.307 64.4916C158.847 64.3336 158.351 64.5097 158.122 64.9065L153.743 72.5793L153.739 72.5896C153.702 72.6718 153.701 72.7482 153.731 72.8201L161.158 90.534C161.173 90.5691 161.195 90.6013 161.222 90.6289C161.249 90.6565 161.282 90.6788 161.317 90.6947C161.353 90.7106 161.392 90.7197 161.43 90.7215C161.469 90.7233 161.507 90.7177 161.543 90.7051L175.626 85.7714C175.699 85.7456 175.755 85.6935 175.786 85.6242C175.817 85.5548 175.818 85.4784 175.788 85.4065L168.361 67.6926C168.326 67.6157 168.258 67.5548 168.174 67.5236Z" fill="#2E1A47"/>
<path d="M161.818 72.0861L161.869 71.9729C161.941 71.8451 162 71.7682 162.045 71.7421C162.145 71.6844 162.305 71.7124 162.526 71.8259C162.662 71.8978 162.749 71.9676 162.788 72.0353C162.827 72.103 162.837 72.1725 162.818 72.2437C162.802 72.313 162.776 72.3822 162.738 72.4512C162.701 72.5202 162.664 72.5866 162.628 72.6505C162.595 72.7125 162.511 72.8168 162.376 72.9633C162.241 73.1099 162.097 73.2278 161.942 73.3172C161.79 73.4047 161.624 73.4747 161.444 73.5272C161.265 73.5746 161.065 73.6 160.843 73.6033C160.623 73.6015 160.408 73.5711 160.197 73.512C159.985 73.4496 159.774 73.3372 159.564 73.1747C159.355 73.007 159.178 72.7975 159.033 72.546C158.888 72.2944 158.799 72.0429 158.765 71.7914C158.73 71.5366 158.739 71.3059 158.791 71.0992C158.845 70.8875 158.93 70.6881 159.046 70.501C159.261 70.1444 159.528 69.874 159.848 69.6897C159.999 69.6022 160.166 69.538 160.349 69.497C160.533 69.4509 160.679 69.4288 160.788 69.4306L160.943 69.4313C161.022 69.4333 161.083 69.4362 161.129 69.4402C161.252 69.4595 161.338 69.5127 161.389 69.5997C161.437 69.6836 161.454 69.7918 161.441 69.9244C161.415 70.1711 161.353 70.3233 161.253 70.381C161.195 70.4145 161.092 70.4265 160.945 70.417C160.746 70.3856 160.534 70.435 160.308 70.5653C160.098 70.6863 159.934 70.878 159.815 71.1404C159.759 71.2672 159.736 71.4137 159.746 71.5799C159.756 71.7461 159.808 71.9114 159.903 72.0759C159.996 72.2371 160.112 72.3636 160.251 72.4553C160.39 72.5471 160.531 72.6012 160.674 72.6176C160.953 72.6459 161.198 72.5987 161.411 72.4758C161.511 72.4181 161.597 72.3512 161.669 72.2751C161.745 72.1972 161.794 72.1342 161.818 72.0861Z" fill="white"/>
<path d="M161.706 75.1755C161.663 75.1014 161.633 75.0456 161.616 75.0083C161.6 74.9659 161.59 74.914 161.584 74.8526C161.579 74.7395 161.68 74.6233 161.886 74.5042C162.083 74.3906 162.23 74.3634 162.329 74.4225C162.383 74.456 162.422 74.4912 162.448 74.528C162.477 74.563 162.513 74.6175 162.555 74.6917L163.848 76.931C163.915 77.0471 163.968 77.1157 164.006 77.1368C164.042 77.1546 164.092 77.1449 164.157 77.1077C164.224 77.0686 164.271 77.0458 164.298 77.0392C164.322 77.0294 164.357 77.0265 164.402 77.0304C164.491 77.0351 164.589 77.1309 164.697 77.318C164.814 77.5211 164.854 77.6639 164.815 77.7462C164.765 77.8527 164.571 77.9778 164.232 78.1215C163.966 78.2326 163.757 78.2435 163.606 78.1541C163.425 78.0482 163.235 77.8228 163.035 77.4778L161.706 75.1755Z" fill="white"/>
<path d="M165.861 81.7588C165.536 81.9468 165.194 81.9807 164.837 81.8603C164.48 81.7349 164.2 81.4949 163.995 81.1402L163.506 80.2938C163.462 80.2164 163.431 80.159 163.414 80.1217C163.4 80.0825 163.39 80.0322 163.384 79.9708C163.379 79.8577 163.48 79.7416 163.686 79.6224C163.912 79.4921 164.08 79.4771 164.189 79.5772C164.238 79.6177 164.295 79.6943 164.36 79.8072L164.849 80.6536C164.925 80.7858 165.022 80.8675 165.139 80.8989C165.259 80.9284 165.382 80.9068 165.508 80.8342C165.637 80.7597 165.718 80.6615 165.751 80.5394C165.787 80.4155 165.768 80.2906 165.696 80.1649L165.201 79.3088C165.158 79.2346 165.128 79.1789 165.111 79.1416C165.095 79.0992 165.086 79.0463 165.084 78.9831C165.078 78.875 165.178 78.7614 165.384 78.6423C165.587 78.525 165.736 78.4969 165.832 78.5579C165.882 78.5932 165.92 78.6293 165.946 78.6661C165.973 78.6979 166.008 78.7508 166.051 78.825L167.039 80.5371C167.08 80.6081 167.108 80.6647 167.124 80.7072C167.142 80.7445 167.15 80.7932 167.151 80.8532C167.151 80.965 167.051 81.0786 166.851 81.194C166.654 81.3075 166.511 81.3387 166.421 81.2873C166.357 81.2511 166.303 81.1943 166.258 81.117C166.258 81.147 166.248 81.196 166.227 81.2639C166.206 81.3319 166.183 81.3925 166.158 81.4457C166.089 81.58 165.99 81.6843 165.861 81.7588Z" fill="white"/>
<path d="M167.32 83.6707C167.607 83.505 167.943 83.4807 168.329 83.5976C168.718 83.7128 169.01 83.9396 169.205 84.2781C169.399 84.6135 169.45 84.9774 169.358 85.3699C169.265 85.7591 169.081 86.0329 168.807 86.1911C168.533 86.3494 168.293 86.3846 168.088 86.2969C168.153 86.4697 168.06 86.6288 167.809 86.774C167.606 86.8913 167.456 86.9194 167.361 86.8584C167.311 86.8231 167.272 86.7896 167.245 86.7578C167.219 86.721 167.185 86.6655 167.142 86.5913L165.475 83.7039C165.432 83.6297 165.402 83.574 165.385 83.5366C165.369 83.4942 165.36 83.4439 165.356 83.3857C165.351 83.2726 165.452 83.1565 165.658 83.0373C165.861 82.9201 166.009 82.8929 166.101 82.9557C166.155 82.9892 166.194 83.0243 166.22 83.0612C166.247 83.0929 166.282 83.1459 166.324 83.22L166.905 84.226C166.943 83.9936 167.081 83.8085 167.32 83.6707ZM167.796 85.4787C167.927 85.5192 168.052 85.505 168.171 85.4361C168.291 85.3673 168.367 85.2651 168.401 85.1296C168.434 84.9942 168.42 84.8732 168.359 84.7668C168.298 84.6604 168.203 84.586 168.075 84.5436C167.946 84.498 167.817 84.5125 167.688 84.5869C167.559 84.6614 167.482 84.7661 167.456 84.9011C167.434 85.0342 167.454 85.1539 167.515 85.2603C167.575 85.3635 167.669 85.4363 167.796 85.4787Z" fill="white"/>
<g filter="url(#filter0_i_501_57)">
<circle cx="159.269" cy="67.0216" r="1.18564" transform="rotate(15 159.269 67.0216)" fill="#E6FAF0"/>
</g>
<g filter="url(#filter1_d_501_57)">
<circle cx="159.269" cy="67.0216" r="0.59282" transform="rotate(15 159.269 67.0216)" fill="#00CC66"/>
</g>
<defs>
<filter id="filter0_i_501_57" x="158.083" y="65.8357" width="2.37187" height="2.37187" filterUnits="userSpaceOnUse" color-interpolation-filters="sRGB">
<feFlood flood-opacity="0" result="BackgroundImageFix"/>
<feBlend mode="normal" in="SourceGraphic" in2="BackgroundImageFix" result="shape"/>
<feColorMatrix in="SourceAlpha" type="matrix" values="0 0 0 0 0 0 0 0 0 0 0 0 0 0 0 0 0 0 127 0" result="hardAlpha"/>
<feOffset/>
<feGaussianBlur stdDeviation="1.5"/>
<feComposite in2="hardAlpha" operator="arithmetic" k2="-1" k3="1"/>
<feColorMatrix type="matrix" values="0 0 0 0 0 0 0 0 0 0 0 0 0 0 0 0 0 0 0.25 0"/>
<feBlend mode="normal" in2="shape" result="effect1_innerShadow_501_57"/>
</filter>
<filter id="filter1_d_501_57" x="154.676" y="64.4286" width="9.18594" height="9.18593" filterUnits="userSpaceOnUse" color-interpolation-filters="sRGB">
<feFlood flood-opacity="0" result="BackgroundImageFix"/>
<feColorMatrix in="SourceAlpha" type="matrix" values="0 0 0 0 0 0 0 0 0 0 0 0 0 0 0 0 0 0 127 0" result="hardAlpha"/>
<feOffset dy="2"/>
<feGaussianBlur stdDeviation="2"/>
<feComposite in2="hardAlpha" operator="out"/>
<feColorMatrix type="matrix" values="0 0 0 0 0 0 0 0 0 0 0 0 0 0 0 0 0 0 0.25 0"/>
<feBlend mode="normal" in2="BackgroundImageFix" result="effect1_dropShadow_501_57"/>
<feBlend mode="normal" in="SourceGraphic" in2="effect1_dropShadow_501_57" result="shape"/>
</filter>
</defs>
</svg>
