<svg width="46" height="52" viewBox="0 0 46 52" fill="none" xmlns="http://www.w3.org/2000/svg">
<path d="M7.03 0.619997L19.98 0.689996C26.7467 0.689996 32.6967 3.14 37.83 8.04C42.9633 12.8933 45.53 18.89 45.53 26.03C45.53 33.1233 43.01 39.2133 37.97 44.3C32.9767 49.3867 26.91 51.93 19.77 51.93L6.96 51.93C4.11333 51.93 2.34 51.3467 1.64 50.18C1.08 49.2 0.8 47.7067 0.8 45.7L0.8 6.78C0.8 5.66 0.823333 4.84333 0.87 4.33C0.963333 3.81666 1.19667 3.21 1.57 2.51C2.22333 1.25 4.04333 0.619997 7.03 0.619997ZM19.98 39.54C23.34 39.54 26.3733 38.3033 29.08 35.83C31.7867 33.31 33.14 30.16 33.14 26.38C33.14 22.6 31.81 19.45 29.15 16.93C26.5367 14.3633 23.4567 13.08 19.91 13.08L13.19 13.08L13.19 39.54L19.98 39.54Z" fill="#262626"/>
</svg>
