<svg width="572" height="381" viewBox="0 0 572 381" fill="none" xmlns="http://www.w3.org/2000/svg">
<g opacity="0.4">
<path d="M274.795 286.288L88.1161 334.356C81.7837 335.979 75.0662 335.024 69.4371 331.7C63.8081 328.377 59.7272 322.957 58.0898 316.629L1.63646 97.4067C0.0134994 91.0749 0.968609 84.3578 4.29225 78.7292C7.6159 73.1006 13.0367 69.0201 19.3653 67.3828L193.04 22.6636L237.489 42.5611L292.524 256.264C294.147 262.596 293.192 269.313 289.868 274.942C286.545 280.57 281.124 284.651 274.795 286.288Z" fill="#F2F2F2"/>
<path d="M21.132 74.2561C16.6253 75.4219 12.765 78.3277 10.3981 82.3359C8.03118 86.3441 7.35098 91.1275 8.50667 95.6365L64.9636 314.859C66.1296 319.366 69.0355 323.226 73.0441 325.592C77.0526 327.959 81.8363 328.639 86.3457 327.483L273.025 279.416C277.532 278.251 281.392 275.345 283.759 271.337C286.126 267.328 286.806 262.545 285.65 258.036L231.468 47.6428L192.402 30.1556L21.132 74.2561Z" fill="white"/>
<path d="M237.015 43.694L208.123 51.1333C206.014 51.6763 203.776 51.3593 201.9 50.252C200.025 49.1447 198.666 47.3379 198.123 45.2289L192.628 23.8919C192.604 23.7986 192.607 23.7004 192.636 23.6086C192.666 23.5167 192.72 23.435 192.794 23.3728C192.867 23.3105 192.957 23.2702 193.052 23.2565C193.148 23.2428 193.245 23.2562 193.333 23.2952L237.095 42.728C237.192 42.7713 237.274 42.8438 237.328 42.9355C237.382 43.0272 237.407 43.1334 237.398 43.2396C237.389 43.3458 237.347 43.4465 237.279 43.5279C237.21 43.6094 237.118 43.6674 237.015 43.694Z" fill="#F2F2F2"/>
<path d="M221.815 230.903L136.823 252.79C135.771 253.054 134.657 252.892 133.724 252.337C132.791 251.783 132.116 250.882 131.845 249.832C131.575 248.781 131.731 247.666 132.28 246.73C132.829 245.794 133.726 245.114 134.775 244.838L219.768 222.951C220.291 222.813 220.836 222.78 221.373 222.854C221.909 222.927 222.425 223.106 222.892 223.38C223.358 223.654 223.766 224.017 224.092 224.449C224.418 224.881 224.655 225.373 224.79 225.897C224.925 226.421 224.955 226.967 224.879 227.503C224.802 228.038 224.62 228.554 224.344 229.019C224.067 229.484 223.702 229.89 223.268 230.213C222.834 230.537 222.34 230.771 221.815 230.903Z" fill="#CCCCCC"/>
<path d="M241.672 240.098L140.278 266.207C139.755 266.345 139.209 266.378 138.673 266.304C138.137 266.23 137.621 266.052 137.154 265.778C136.687 265.504 136.279 265.141 135.953 264.709C135.628 264.276 135.39 263.784 135.255 263.26C135.12 262.736 135.09 262.191 135.167 261.655C135.244 261.119 135.426 260.604 135.702 260.139C135.978 259.674 136.344 259.268 136.778 258.945C137.212 258.621 137.706 258.387 138.23 258.255L239.625 232.146C240.677 231.882 241.791 232.044 242.724 232.598C243.656 233.153 244.332 234.054 244.602 235.104C244.873 236.155 244.717 237.27 244.168 238.206C243.619 239.141 242.722 239.822 241.672 240.098Z" fill="#CCCCCC"/>
<path d="M102.134 279.146C110.149 279.146 116.647 272.649 116.647 264.635C116.647 256.62 110.149 250.123 102.134 250.123C94.1189 250.123 87.6213 256.62 87.6213 264.635C87.6213 272.649 94.1189 279.146 102.134 279.146Z" fill="#FFEFC2"/>
<path d="M212.778 192.926L99.8987 221.981C96.6365 222.817 93.1759 222.324 90.2762 220.612C87.3765 218.9 85.2745 216.107 84.4314 212.847L60.7771 120.959C59.942 117.698 60.4347 114.238 62.1472 111.339C63.8596 108.441 66.6519 106.339 69.9117 105.496L182.79 76.4419C186.052 75.6061 189.513 76.0983 192.413 77.8107C195.312 79.5231 197.414 82.3157 198.257 85.5758L221.912 177.463C222.747 180.725 222.255 184.184 220.542 187.083C218.83 189.982 216.037 192.083 212.778 192.926Z" fill="white"/>
<path d="M212.778 192.926L99.8987 221.981C96.6365 222.817 93.1759 222.324 90.2762 220.612C87.3765 218.9 85.2745 216.107 84.4314 212.847L60.7771 120.959C59.942 117.698 60.4347 114.238 62.1472 111.339C63.8596 108.441 66.6519 106.339 69.9117 105.496L182.79 76.4419C186.052 75.6061 189.513 76.0983 192.413 77.8107C195.312 79.5231 197.414 82.3157 198.257 85.5758L221.912 177.463C222.747 180.725 222.255 184.184 220.542 187.083C218.83 189.982 216.037 192.083 212.778 192.926ZM70.2839 106.941C67.4076 107.685 64.9442 109.54 63.4339 112.098C61.9235 114.657 61.4896 117.709 62.2272 120.587L85.8823 212.475C86.627 215.351 88.482 217.814 91.0405 219.324C93.599 220.834 96.6521 221.268 99.5301 220.531L212.406 191.479C215.282 190.735 217.746 188.88 219.256 186.321C220.767 183.763 221.201 180.71 220.463 177.833L196.81 85.9451C196.065 83.0691 194.21 80.6059 191.652 79.0956C189.093 77.5854 186.04 77.1515 183.162 77.8891L70.2839 106.941Z" fill="#E6E6E6"/>
<path d="M177.063 107.336L120.097 121.999C119.599 122.138 119.067 122.083 118.608 121.844C118.149 121.606 117.798 121.203 117.625 120.716C117.544 120.461 117.517 120.193 117.543 119.927C117.57 119.661 117.651 119.404 117.78 119.17C117.91 118.937 118.086 118.732 118.297 118.569C118.508 118.405 118.751 118.287 119.009 118.22L176.999 103.294C179.342 104.481 178.725 106.909 177.064 107.336L177.063 107.336Z" fill="#F2F2F2"/>
<path d="M179.634 117.324L122.667 131.988C122.169 132.127 121.637 132.071 121.178 131.833C120.719 131.595 120.368 131.192 120.195 130.704C120.115 130.45 120.087 130.181 120.114 129.916C120.14 129.65 120.221 129.392 120.351 129.159C120.48 128.925 120.656 128.721 120.867 128.558C121.079 128.394 121.321 128.276 121.58 128.209L179.569 113.283C181.912 114.47 181.296 116.897 179.634 117.325L179.634 117.324Z" fill="#F2F2F2"/>
<path d="M111.817 140.849L94.4309 145.323C94.1497 145.395 93.8571 145.412 93.5696 145.371C93.2821 145.33 93.0054 145.233 92.7554 145.086C92.5054 144.938 92.2869 144.742 92.1125 144.51C91.938 144.278 91.811 144.014 91.7387 143.733L86.457 123.222C86.3845 122.941 86.3682 122.648 86.4089 122.361C86.4496 122.073 86.5465 121.797 86.6942 121.547C86.8418 121.297 87.0373 121.078 87.2694 120.904C87.5015 120.73 87.7657 120.603 88.047 120.53L105.433 116.055C106.001 115.91 106.603 115.996 107.108 116.294C107.612 116.592 107.978 117.078 108.125 117.645L113.407 138.161C113.479 138.442 113.496 138.735 113.455 139.022C113.414 139.309 113.317 139.586 113.17 139.836C113.022 140.086 112.826 140.305 112.594 140.479C112.362 140.653 112.098 140.78 111.817 140.853V140.849Z" fill="#FFEFC2"/>
<path d="M184.736 137.829L97.7926 160.207C97.2946 160.346 96.7625 160.291 96.3036 160.053C95.8448 159.814 95.4935 159.411 95.3207 158.924C95.2403 158.669 95.2126 158.401 95.2394 158.135C95.2662 157.869 95.3468 157.612 95.4764 157.378C95.6059 157.145 95.7817 156.94 95.993 156.777C96.2043 156.614 96.4467 156.495 96.7053 156.429L184.672 133.786C187.015 134.973 186.398 137.401 184.736 137.829Z" fill="#F2F2F2"/>
<path d="M187.311 147.822L100.366 170.201C99.8677 170.34 99.3356 170.285 98.8768 170.047C98.4179 169.809 98.0666 169.405 97.8938 168.918C97.8134 168.664 97.7857 168.395 97.8125 168.129C97.8393 167.864 97.9199 167.606 98.0495 167.373C98.179 167.139 98.3548 166.935 98.5661 166.771C98.7774 166.608 99.0198 166.49 99.2784 166.423L187.245 143.781C189.588 144.968 188.971 147.395 187.31 147.823L187.311 147.822Z" fill="#F2F2F2"/>
<path d="M189.881 157.812L102.937 180.19C102.439 180.329 101.907 180.274 101.448 180.036C100.989 179.798 100.638 179.394 100.465 178.907C100.384 178.652 100.357 178.384 100.384 178.118C100.41 177.853 100.491 177.595 100.621 177.362C100.75 177.128 100.926 176.923 101.137 176.76C101.348 176.597 101.591 176.478 101.849 176.412L189.816 153.769C192.158 154.956 191.542 157.384 189.881 157.812Z" fill="#F2F2F2"/>
<path d="M192.454 167.805L105.51 190.184C105.012 190.323 104.48 190.268 104.021 190.029C103.562 189.791 103.211 189.388 103.038 188.901C102.958 188.646 102.93 188.378 102.957 188.112C102.983 187.846 103.064 187.589 103.194 187.355C103.323 187.122 103.499 186.917 103.71 186.754C103.922 186.59 104.164 186.472 104.423 186.405L192.389 163.763C194.732 164.95 194.116 167.378 192.454 167.805Z" fill="#F2F2F2"/>
<path d="M195.025 177.794L108.081 200.173C107.584 200.312 107.051 200.256 106.593 200.018C106.134 199.78 105.782 199.376 105.61 198.889C105.529 198.635 105.502 198.366 105.528 198.101C105.555 197.835 105.636 197.577 105.765 197.344C105.895 197.11 106.071 196.906 106.282 196.742C106.493 196.579 106.736 196.461 106.994 196.394L194.961 173.752C197.303 174.939 196.687 177.366 195.025 177.794Z" fill="#F2F2F2"/>
<path d="M103.205 269.721C102.889 269.803 102.555 269.78 102.253 269.656L102.234 269.648L98.281 267.972C98.0979 267.894 97.9318 267.781 97.7924 267.639C97.6529 267.497 97.5429 267.328 97.4684 267.144C97.394 266.959 97.3566 266.762 97.3585 266.563C97.3603 266.364 97.4014 266.167 97.4793 265.984C97.5572 265.801 97.6704 265.635 97.8125 265.495C97.9546 265.356 98.1227 265.246 98.3073 265.171C98.4919 265.097 98.6894 265.06 98.8885 265.061C99.0875 265.063 99.2842 265.104 99.4674 265.182L102.029 266.272L105.386 258.375C105.543 258.006 105.841 257.713 106.213 257.563C106.586 257.413 107.003 257.417 107.373 257.574L107.353 257.625L107.374 257.573C107.743 257.731 108.035 258.029 108.186 258.401C108.336 258.774 108.332 259.191 108.175 259.561L104.226 268.845C104.134 269.059 103.995 269.249 103.818 269.401C103.641 269.552 103.431 269.66 103.206 269.718L103.205 269.721Z" fill="white"/>
<path d="M458.043 343.961L268.816 307.182C262.4 305.928 256.744 302.18 253.089 296.76C249.433 291.34 248.077 284.692 249.318 278.274L292.516 56.0584C293.771 49.6433 297.519 43.9877 302.939 40.3324C308.358 36.6772 315.007 35.3207 321.425 36.5607L497.47 70.777L529.063 107.84L486.952 324.461C485.698 330.877 481.95 336.533 476.53 340.188C471.111 343.844 464.462 345.201 458.043 343.961Z" fill="#E6E6E6"/>
<path d="M320.071 43.5281C315.5 42.6452 310.766 43.6111 306.906 46.2141C303.047 48.817 300.378 52.8444 299.484 57.4127L256.286 279.628C255.403 284.199 256.369 288.932 258.972 292.791C261.575 296.65 265.603 299.319 270.171 300.213L459.398 336.991C463.969 337.874 468.703 336.908 472.562 334.305C476.422 331.702 479.091 327.675 479.984 323.107L521.442 109.843L493.678 77.2708L320.071 43.5281Z" fill="white"/>
<path d="M459.931 137.768L373.779 121.023C372.71 120.815 371.767 120.191 371.158 119.288C370.549 118.385 370.324 117.278 370.532 116.209C370.739 115.14 371.363 114.197 372.266 113.588C373.169 112.98 374.277 112.754 375.346 112.962L461.5 129.707C462.569 129.915 463.512 130.539 464.121 131.442C464.73 132.344 464.955 133.452 464.748 134.521C464.54 135.59 463.916 136.532 463.013 137.141C462.11 137.75 461.002 137.976 459.933 137.768L459.931 137.768Z" fill="#FFEFC2"/>
<path d="M473.913 154.601L371.135 134.625C370.066 134.417 369.123 133.793 368.514 132.891C367.905 131.988 367.68 130.88 367.887 129.811C368.095 128.742 368.719 127.8 369.622 127.191C370.525 126.582 371.633 126.357 372.702 126.564L475.48 146.541C476.549 146.749 477.492 147.372 478.101 148.275C478.71 149.178 478.935 150.286 478.727 151.355C478.52 152.423 477.896 153.366 476.993 153.975C476.09 154.584 474.982 154.809 473.913 154.601Z" fill="#FFEFC2"/>
<path d="M449.65 190.662L363.499 173.918C362.43 173.71 361.323 173.935 360.42 174.544C359.517 175.153 358.893 176.095 358.686 177.164C358.478 178.233 358.703 179.341 359.312 180.243C359.921 181.146 360.863 181.77 361.932 181.978L448.083 198.722C449.145 198.914 450.241 198.68 451.132 198.07C452.023 197.461 452.638 196.525 452.844 195.465C453.05 194.405 452.83 193.307 452.232 192.408C451.634 191.509 450.707 190.882 449.65 190.662Z" fill="#CCCCCC"/>
<path d="M463.632 207.498L360.855 187.521C360.322 187.411 359.773 187.407 359.239 187.51C358.705 187.613 358.197 187.821 357.745 188.122C357.292 188.423 356.903 188.811 356.602 189.264C356.3 189.716 356.091 190.224 355.988 190.758C355.884 191.291 355.887 191.84 355.997 192.373C356.107 192.905 356.322 193.411 356.629 193.859C356.936 194.308 357.329 194.691 357.786 194.987C358.242 195.283 358.753 195.485 359.288 195.581L462.065 215.557C462.597 215.668 463.146 215.672 463.68 215.569C464.214 215.466 464.722 215.258 465.175 214.957C465.627 214.656 466.016 214.268 466.318 213.815C466.619 213.363 466.828 212.855 466.932 212.321C467.035 211.787 467.032 211.238 466.922 210.706C466.812 210.173 466.597 209.668 466.29 209.219C465.983 208.771 465.59 208.387 465.133 208.092C464.677 207.796 464.167 207.594 463.632 207.498Z" fill="#CCCCCC"/>
<path d="M436.232 259.682L350.079 242.937C349.01 242.729 348.068 242.105 347.459 241.203C346.85 240.3 346.624 239.192 346.832 238.123C347.04 237.054 347.664 236.112 348.567 235.503C349.469 234.894 350.577 234.669 351.646 234.876L437.801 251.622C438.87 251.829 439.813 252.453 440.421 253.356C441.03 254.259 441.256 255.366 441.048 256.435C440.84 257.504 440.216 258.447 439.313 259.056C438.411 259.665 437.303 259.89 436.234 259.682L436.232 259.682Z" fill="#CCCCCC"/>
<path d="M450.214 276.515L347.435 256.539C346.366 256.331 345.423 255.707 344.814 254.804C344.206 253.902 343.98 252.794 344.188 251.725C344.396 250.656 345.02 249.713 345.922 249.105C346.825 248.496 347.933 248.27 349.002 248.478L451.781 268.454C452.85 268.662 453.792 269.286 454.401 270.189C455.01 271.092 455.236 272.199 455.028 273.268C454.82 274.337 454.196 275.28 453.293 275.889C452.391 276.498 451.283 276.723 450.214 276.515Z" fill="#CCCCCC"/>
<path d="M334.595 131.066C342.462 132.595 350.08 127.457 351.61 119.59C353.139 111.722 348.001 104.105 340.133 102.576C332.265 101.047 324.647 106.185 323.118 114.052C321.588 121.919 326.727 129.536 334.595 131.066Z" fill="#FFEFC2"/>
<path d="M334.897 121.98C334.576 121.918 334.284 121.754 334.065 121.512L334.051 121.497L331.201 118.285C330.941 117.983 330.81 117.591 330.837 117.193C330.863 116.795 331.046 116.424 331.344 116.16C331.643 115.896 332.033 115.76 332.431 115.781C332.829 115.803 333.203 115.98 333.471 116.275L335.317 118.36L341.74 112.671C341.889 112.539 342.062 112.438 342.25 112.373C342.438 112.308 342.638 112.281 342.836 112.293C343.035 112.305 343.229 112.356 343.408 112.443C343.587 112.531 343.747 112.652 343.879 112.801L343.839 112.838L343.88 112.8C344.146 113.101 344.282 113.495 344.258 113.896C344.233 114.298 344.051 114.672 343.75 114.939L336.193 121.628C336.019 121.782 335.811 121.893 335.586 121.954C335.361 122.015 335.125 122.023 334.897 121.978L334.897 121.98Z" fill="white"/>
<path d="M341.224 180.829C340.861 182.7 340.133 184.481 339.082 186.071C338.03 187.661 336.676 189.028 335.096 190.094C333.516 191.16 331.742 191.905 329.874 192.285C328.007 192.665 326.082 192.674 324.211 192.311C324.088 192.289 323.967 192.261 323.847 192.225C321.06 191.608 318.517 190.184 316.535 188.13C314.554 186.075 313.223 183.482 312.708 180.675C312.193 177.867 312.517 174.971 313.64 172.347C314.764 169.723 316.636 167.489 319.023 165.923C321.41 164.358 324.205 163.532 327.059 163.547C329.914 163.562 332.7 164.419 335.07 166.01C337.439 167.601 339.287 169.856 340.382 172.492C341.477 175.127 341.77 178.028 341.224 180.829Z" fill="#FFEFC2"/>
<path d="M310.895 252.979C318.763 254.508 326.381 249.37 327.91 241.503C329.44 233.636 324.301 226.019 316.433 224.489C308.566 222.96 300.948 228.098 299.418 235.965C297.889 243.833 303.027 251.45 310.895 252.979Z" fill="#FFEFC2"/>
<path d="M528.149 108.659L498.863 102.967C496.725 102.551 494.84 101.303 493.622 99.4979C492.404 97.6924 491.953 95.4771 492.369 93.3393L496.573 71.7112C496.592 71.6165 496.637 71.529 496.703 71.4586C496.768 71.3882 496.853 71.3378 496.946 71.3132C497.039 71.2885 497.138 71.2907 497.23 71.3194C497.322 71.348 497.404 71.402 497.467 71.4753L528.637 107.819C528.706 107.9 528.748 108 528.758 108.106C528.767 108.212 528.744 108.319 528.69 108.411C528.637 108.503 528.556 108.576 528.459 108.62C528.362 108.664 528.254 108.677 528.149 108.656L528.149 108.659Z" fill="#CCCCCC"/>
<path d="M354.558 324.907C353.656 326.385 352.204 327.445 350.521 327.853C348.838 328.26 347.062 327.983 345.584 327.081L269.4 280.616C267.922 279.714 266.862 278.262 266.454 276.58C266.046 274.897 266.324 273.121 267.226 271.642C268.128 270.164 269.58 269.104 271.263 268.697C272.946 268.289 274.722 268.567 276.2 269.468L352.383 315.933C353.862 316.835 354.921 318.287 355.329 319.97C355.736 321.653 355.46 323.429 354.558 324.907Z" fill="#FF7300"/>
<path d="M278.374 278.445C272.995 287.265 265.12 294.291 255.747 298.636C246.374 302.98 235.923 304.448 225.715 302.853C215.508 301.259 206.003 296.673 198.401 289.677C190.8 282.68 185.445 273.587 183.012 263.547C180.579 253.507 181.178 242.972 184.733 233.272C188.289 223.573 194.641 215.145 202.986 209.056C211.331 202.966 221.295 199.487 231.618 199.06C241.94 198.633 252.157 201.275 260.978 206.654C266.834 210.226 271.93 214.916 275.974 220.457C280.018 225.998 282.93 232.281 284.546 238.947C286.161 245.614 286.448 252.533 285.389 259.31C284.33 266.087 281.946 272.589 278.374 278.445ZM200.333 230.844C196.299 237.458 194.316 245.121 194.637 252.862C194.957 260.604 197.566 268.076 202.134 274.335C206.702 280.593 213.023 285.357 220.298 288.023C227.573 290.69 235.476 291.139 243.006 289.314C250.537 287.49 257.357 283.473 262.605 277.773C267.853 272.072 271.292 264.944 272.488 257.289C273.684 249.634 272.583 241.796 269.324 234.766C266.066 227.737 260.795 221.832 254.18 217.797C245.309 212.387 234.653 210.723 224.555 213.169C214.456 215.616 205.744 221.974 200.333 230.844Z" fill="#FF7300"/>
<path d="M219.967 289.127C241.191 296.435 264.321 285.154 271.629 263.931C278.937 242.709 267.656 219.58 246.432 212.273C225.207 204.965 202.077 216.246 194.769 237.468C187.461 258.691 198.742 281.819 219.967 289.127Z" fill="#FFEFC2"/>
</g>
</svg>
